<?xml version="1.0" standalone="no"?>
<!DOCTYPE svg PUBLIC "-//W3C//DTD SVG 20010904//EN"
 "http://www.w3.org/TR/2001/REC-SVG-20010904/DTD/svg10.dtd">
<svg version="1.0" xmlns="http://www.w3.org/2000/svg"
 width="180.000000pt" height="180.000000pt" viewBox="0 0 180.000000 180.000000"
 preserveAspectRatio="xMidYMid meet">
<metadata>
Created by potrace 1.14, written by Peter Selinger 2001-2017
</metadata>
<g transform="translate(0.000000,180.000000) scale(0.100000,-0.100000)"
fill="#000000" stroke="none">
<path d="M232 1333 c4 -20 18 -26 37 -14 8 5 10 14 6 21 -6 10 -12 8 -23 -6
-13 -16 -14 -17 -9 -1 4 9 2 17 -4 17 -6 0 -9 -8 -7 -17z"/>
<path d="M312 1330 l-24 -20 27 -10 c35 -13 40 -13 26 4 -8 10 -9 16 -1 21 12
7 14 25 3 25 -5 -1 -19 -9 -31 -20z"/>
<path d="M380 1340 c0 -5 5 -10 10 -10 6 0 10 5 10 10 0 6 -4 10 -10 10 -5 0
-10 -4 -10 -10z"/>
<path d="M490 1335 l-35 -13 43 1 c27 1 42 6 42 14 0 16 -5 15 -50 -2z"/>
<path d="M665 1335 c-3 -8 -7 -22 -10 -30 -3 -10 2 -15 14 -15 14 0 17 6 13
30 -5 33 -10 38 -17 15z"/>
<path d="M863 1327 c15 -13 27 -28 27 -35 0 -17 -27 -15 -34 3 -5 13 -10 14
-27 5 -19 -11 -19 -13 -5 -35 21 -31 20 -35 -4 -35 -23 0 -26 -13 -6 -29 9 -8
16 -8 20 -2 7 11 75 3 93 -11 7 -5 16 -7 21 -4 5 3 7 -6 4 -19 -2 -14 -12 -26
-21 -27 -9 0 -21 -2 -28 -2 -7 -1 -18 -9 -25 -18 -8 -12 -18 -15 -26 -9 -12 7
-12 12 -1 29 7 12 11 23 9 26 -12 11 -43 10 -47 -1 -3 -8 3 -13 14 -13 14 0
15 -2 4 -9 -24 -15 -24 -52 -1 -58 11 -3 20 -9 20 -13 0 -5 8 -16 17 -25 12
-13 14 -21 6 -34 -9 -14 -7 -17 8 -18 13 -1 19 5 19 18 0 21 34 27 45 8 4 -5
11 -9 17 -7 11 4 18 327 7 334 -11 6 -16 -18 -13 -63 2 -32 -1 -43 -12 -43 -7
0 -14 -8 -15 -17 0 -14 -2 -13 -9 5 -11 26 -19 28 -35 5 -7 -9 -17 -13 -23 -9
-16 10 -15 26 2 26 16 0 76 50 76 63 0 5 -8 7 -17 5 -10 -2 -27 4 -37 14 -11
10 -27 18 -35 18 -11 -1 -8 -8 12 -23z m77 -238 c19 -34 12 -45 -25 -41 -28 3
-35 9 -35 26 0 45 39 55 60 15z"/>
<path d="M1488 1343 c-27 -2 -48 -9 -48 -14 0 -6 8 -8 18 -5 31 10 42 -7 22
-31 -14 -18 -25 -22 -49 -17 -19 4 -28 11 -24 18 4 6 9 19 10 30 3 15 0 16
-10 7 -8 -6 -16 -9 -18 -6 -3 2 -5 -4 -5 -13 0 -9 -4 -28 -8 -41 -8 -22 -6
-23 18 -17 15 4 26 2 26 -4 0 -5 -9 -10 -20 -10 -11 0 -20 -5 -20 -10 0 -6 11
-8 25 -4 19 5 25 2 25 -10 0 -11 9 -15 36 -14 29 1 35 5 31 19 -5 19 15 44 26
32 4 -3 7 -17 7 -30 0 -30 -67 -64 -82 -41 -5 8 -6 4 -3 -13 8 -31 -16 -46
-35 -24 -7 8 -16 12 -22 9 -5 -3 -5 -11 2 -19 6 -7 8 -20 4 -29 -4 -11 -1 -16
10 -16 18 0 22 -15 6 -25 -19 -12 -11 -45 10 -45 11 0 20 -7 20 -15 0 -8 5
-15 11 -15 6 0 9 7 5 15 -3 10 1 15 14 15 10 0 21 4 24 8 6 9 -35 48 -46 44
-5 -1 -8 5 -8 13 0 8 5 15 10 15 6 0 10 -4 10 -10 0 -5 9 -10 20 -10 11 0 20
5 20 10 0 6 -7 10 -15 10 -18 0 -19 9 -4 30 8 11 12 12 16 3 2 -7 10 -13 17
-13 10 0 13 -23 11 -96 -2 -79 -6 -98 -21 -109 -11 -8 -17 -15 -14 -16 3 0 15
-2 27 -3 l23 -3 0 229 c-1 125 -2 227 -3 226 -1 -1 -23 -3 -49 -5z m32 -53 c0
-5 -4 -10 -10 -10 -5 0 -10 5 -10 10 0 6 5 10 10 10 6 0 10 -4 10 -10z"/>
<path d="M585 1329 c-4 -6 -4 -13 0 -17 3 -3 10 0 14 7 5 7 13 11 19 7 6 -3
13 -2 17 4 4 6 -4 10 -19 10 -14 0 -28 -5 -31 -11z"/>
<path d="M390 1310 c-12 -8 -9 -10 13 -10 16 0 26 4 22 10 -8 12 -16 12 -35 0z"/>
<path d="M552 1308 c-7 -7 -12 -19 -12 -27 0 -9 -11 -21 -25 -28 -14 -6 -25
-7 -25 -2 0 5 5 9 10 9 19 0 10 15 -15 27 -14 6 -27 7 -30 3 -3 -5 -18 -11
-34 -15 -33 -7 -48 -30 -25 -39 14 -5 14 -8 0 -21 -10 -11 -24 -13 -42 -9 -15
4 -39 7 -53 8 -19 1 -26 6 -26 21 0 15 6 19 23 18 12 -2 22 2 22 7 0 6 -17 10
-39 10 -38 0 -39 0 -39 -40 -1 -34 2 -40 21 -41 138 -5 247 -3 243 7 -5 12 31
37 37 26 9 -14 4 -92 -5 -92 -5 0 -6 -5 -3 -11 4 -6 18 0 35 17 24 25 26 31
17 59 -6 16 -17 35 -26 41 -13 10 -13 15 3 39 19 29 10 55 -12 33z m-92 -78
c0 -5 -5 -10 -11 -10 -5 0 -7 5 -4 10 3 6 8 10 11 10 2 0 4 -4 4 -10z"/>
<path d="M610 1250 c0 -5 9 -10 20 -10 11 0 20 5 20 10 0 6 -9 10 -20 10 -11
0 -20 -4 -20 -10z"/>
<path d="M659 1244 c-10 -13 -10 -17 1 -24 17 -10 30 -4 30 15 0 22 -16 26
-31 9z"/>
<path d="M602 1199 c11 -6 15 -16 11 -27 -5 -16 -5 -16 12 0 21 19 12 38 -18
38 -19 -1 -20 -2 -5 -11z"/>
<path d="M664 1153 c-4 -21 -12 -42 -18 -46 -8 -6 -7 -10 2 -14 14 -6 17 -53
2 -53 -5 0 -10 7 -10 15 0 8 -7 15 -15 15 -7 0 -18 8 -24 17 -5 10 -13 14 -18
9 -4 -5 -2 -11 5 -13 6 -3 10 -9 6 -14 -9 -15 -22 -10 -27 9 -3 14 -6 12 -14
-8 -9 -21 -7 -26 9 -32 11 -5 18 -15 16 -25 -1 -10 1 -24 5 -30 5 -9 3 -13 -7
-13 -9 0 -16 6 -16 14 0 15 -24 28 -34 19 -3 -4 -6 -21 -6 -40 0 -31 2 -33 28
-27 43 11 62 23 62 43 0 27 10 31 36 14 18 -11 24 -24 24 -50 0 -22 4 -32 11
-28 7 5 10 54 8 141 -3 133 -12 168 -25 97z m-44 -113 c0 -5 -5 -10 -11 -10
-5 0 -7 5 -4 10 3 6 8 10 11 10 2 0 4 -4 4 -10z"/>
<path d="M920 990 c0 -5 5 -10 10 -10 6 0 10 5 10 10 0 6 -4 10 -10 10 -5 0
-10 -4 -10 -10z"/>
<path d="M1480 985 c0 -8 7 -15 15 -15 8 0 15 7 15 15 0 8 -7 15 -15 15 -8 0
-15 -7 -15 -15z"/>
<path d="M1426 958 c7 -22 27 -48 38 -48 3 0 -4 16 -15 35 -24 40 -34 45 -23
13z"/>
<path d="M834 956 c-15 -39 30 -67 55 -33 7 10 10 21 6 25 -3 4 -11 -1 -16
-11 -12 -21 -29 -22 -29 -2 0 8 5 15 10 15 6 0 10 5 10 10 0 15 -30 12 -36 -4z"/>
<path d="M1016 954 c-3 -8 -13 -14 -23 -12 -12 2 -20 -7 -26 -29 -6 -18 -16
-33 -24 -33 -8 0 -11 5 -8 10 7 12 -12 40 -26 40 -15 0 -10 -27 10 -51 15 -19
22 -21 32 -12 10 10 18 9 41 -5 15 -9 28 -20 28 -24 0 -10 -3 -10 -34 2 l-26
10 1 -63 c2 -54 3 -57 8 -22 l6 40 198 3 c120 1 197 6 197 12 0 6 -9 10 -19
10 -10 0 -21 7 -25 15 -6 17 -47 20 -63 4 -5 -5 -29 -12 -52 -14 -33 -3 -47 1
-71 21 -27 23 -31 24 -45 11 -8 -9 -15 -20 -15 -26 0 -6 -5 -11 -11 -11 -6 0
-8 9 -4 20 5 16 2 20 -17 20 -20 1 -21 2 -5 11 9 5 17 17 17 25 0 11 6 13 19
9 13 -4 24 1 35 16 l15 22 10 -26 c6 -15 18 -27 28 -27 13 0 14 3 5 12 -8 8
-6 16 10 30 12 10 17 18 12 19 -142 9 -172 8 -178 -7z m-16 -44 c-8 -5 -17 -7
-19 -4 -3 3 1 9 9 14 8 5 17 7 19 4 3 -3 -1 -9 -9 -14z m120 -70 c0 -5 -4 -10
-10 -10 -5 0 -10 5 -10 10 0 6 5 10 10 10 6 0 10 -4 10 -10z"/>
<path d="M1380 954 c0 -8 5 -12 10 -9 6 3 10 10 10 16 0 5 -4 9 -10 9 -5 0
-10 -7 -10 -16z"/>
<path d="M915 950 c3 -5 13 -10 21 -10 8 0 14 5 14 10 0 6 -9 10 -21 10 -11 0
-17 -4 -14 -10z"/>
<path d="M1470 950 c0 -5 7 -10 15 -10 8 0 15 5 15 10 0 6 -7 10 -15 10 -8 0
-15 -4 -15 -10z"/>
<path d="M535 910 c3 -5 11 -10 16 -10 6 0 7 5 4 10 -3 6 -11 10 -16 10 -6 0
-7 -4 -4 -10z"/>
<path d="M1210 907 c0 -8 6 -18 13 -20 6 -3 1 -6 -13 -7 -24 -1 -24 -1 -6 -15
17 -13 50 -12 65 1 4 3 -12 20 -42 43 -15 12 -17 11 -17 -2z"/>
<path d="M606 901 c-4 -7 -5 -15 -2 -18 9 -9 19 4 14 18 -4 11 -6 11 -12 0z"/>
<path d="M1315 890 c-4 -6 6 -10 22 -10 22 0 25 2 13 10 -19 12 -27 12 -35 0z"/>
<path d="M619 858 c-13 -5 -19 -14 -15 -23 3 -8 0 -17 -6 -21 -10 -6 -19 -8
-65 -13 -7 0 -13 -6 -13 -11 0 -6 20 -9 51 -6 75 7 81 3 63 -47 -22 -62 -43
-92 -57 -78 -16 16 -31 13 -17 -4 15 -18 6 -46 -20 -63 -18 -11 -20 -10 -20
10 0 17 -3 20 -9 9 -5 -8 -16 -11 -25 -8 -9 4 -15 1 -13 -6 2 -12 -13 -13 -49
-2 -12 4 -27 1 -35 -7 -17 -16 -56 -21 -64 -7 -4 5 6 14 21 19 38 15 22 24
-19 11 -18 -6 -44 -10 -58 -9 -16 2 -24 -2 -24 -12 0 -9 9 -15 25 -15 17 0 26
-6 28 -20 2 -11 8 -24 13 -29 5 -6 9 -15 9 -20 0 -6 -5 -4 -10 4 -6 10 -10 11
-10 3 0 -7 -11 -13 -25 -13 -27 0 -32 -9 -13 -28 9 -9 8 -12 -5 -12 -9 0 -17
-5 -17 -11 0 -15 77 -4 147 21 143 50 276 208 290 344 5 47 4 52 -15 52 -12 0
-31 -4 -43 -8z m44 -28 c-6 -23 -19 -26 -26 -6 -6 16 1 26 19 26 7 0 10 -8 7
-20z m-170 -278 c-20 -21 -61 -42 -79 -42 -8 0 -14 10 -14 25 0 29 3 30 31 13
18 -11 23 -10 37 8 10 12 23 19 29 17 9 -4 8 -9 -4 -21z m-119 -11 c4 -5 2
-19 -2 -31 l-8 -22 -17 25 c-9 13 -13 27 -10 31 9 9 31 7 37 -3z m-64 -66 c0
-8 -7 -15 -15 -15 -9 0 -12 6 -9 15 4 8 10 15 15 15 5 0 9 -7 9 -15z"/>
<path d="M1155 860 c3 -5 11 -10 16 -10 6 0 7 5 4 10 -3 6 -11 10 -16 10 -6 0
-7 -4 -4 -10z"/>
<path d="M1508 853 c0 -5 -2 -15 -2 -23 -1 -8 -9 -15 -18 -15 -9 0 -20 -4 -24
-8 -4 -4 7 -7 25 -7 31 0 33 -2 27 -26 -4 -16 -2 -32 6 -42 12 -13 9 -14 -24
-8 -31 6 -38 4 -38 -9 0 -8 -6 -15 -14 -15 -21 0 -28 28 -9 38 14 8 14 10 -1
15 -8 3 -18 2 -21 -3 -4 -6 -13 -10 -22 -10 -11 0 -4 11 20 33 20 18 37 41 37
51 0 24 -24 15 -28 -11 -2 -11 -14 -26 -28 -33 -27 -15 -31 -41 -9 -60 8 -7
15 -9 15 -6 0 4 10 -2 22 -13 15 -15 25 -18 34 -10 8 7 22 6 43 -3 30 -13 31
-13 16 -42 -9 -18 -12 -32 -6 -35 5 -4 9 -37 9 -75 0 -44 -3 -64 -9 -55 -7 11
-11 12 -17 1 -9 -13 -57 -18 -97 -11 -12 3 -21 -2 -23 -13 -3 -16 6 -18 82
-18 l85 0 1 210 c0 180 -2 210 -15 210 -8 0 -16 -3 -17 -7z"/>
<path d="M834 834 c3 -9 6 -18 6 -21 0 -3 7 0 15 7 21 18 19 30 -6 30 -15 0
-19 -4 -15 -16z"/>
<path d="M916 805 c4 -10 0 -15 -16 -15 -11 0 -18 5 -15 10 3 6 -1 10 -10 10
-12 0 -15 -6 -10 -20 5 -15 3 -18 -9 -14 -10 4 -17 -2 -22 -20 -3 -14 -13 -26
-22 -26 -11 0 -13 -3 -6 -10 13 -13 64 4 64 21 0 7 2 10 5 7 8 -8 65 44 65 59
0 7 -7 13 -15 13 -9 0 -12 -6 -9 -15z"/>
<path d="M577 763 c-12 -11 -8 -21 12 -26 25 -6 34 2 20 20 -13 14 -22 16 -32
6z"/>
<path d="M508 716 c-15 -11 -14 -13 17 -14 19 -1 37 3 40 8 3 6 2 10 -4 10 -5
0 -15 2 -23 5 -7 2 -21 -1 -30 -9z"/>
<path d="M932 708 c-17 -17 -15 -25 7 -31 26 -7 24 -63 -2 -61 -9 1 -17 -3
-17 -8 0 -5 -9 -6 -20 -3 -14 4 -22 1 -26 -10 -4 -9 -13 -14 -21 -11 -8 3 -21
0 -29 -8 -16 -17 -19 -46 -4 -46 6 0 10 9 10 20 0 11 5 20 10 20 13 0 13 -27
0 -35 -6 -4 -8 -10 -5 -15 3 -4 -1 -10 -9 -13 -16 -6 -29 -47 -14 -47 5 0 6
-4 3 -10 -4 -6 23 -10 74 -10 47 0 81 4 81 10 0 6 -5 10 -12 10 -6 0 -3 6 8
14 15 12 16 17 7 27 -10 10 -14 9 -19 -4 -3 -9 -12 -17 -20 -17 -8 0 -14 -4
-14 -10 0 -5 -5 -10 -10 -10 -6 0 -8 11 -4 25 4 15 2 25 -5 25 -6 0 -11 -7
-11 -16 0 -14 -3 -14 -15 -4 -18 15 -19 31 -2 52 16 21 48 30 67 18 12 -7 12
-12 -4 -29 -17 -19 -17 -21 -3 -21 10 0 17 5 17 11 0 5 4 8 9 5 13 -9 17 20
13 112 -4 82 -12 98 -40 70z m20 -130 c-7 -7 -12 -8 -12 -2 0 14 12 26 19 19
2 -3 -1 -11 -7 -17z"/>
<path d="M876 693 c-6 -14 -5 -15 5 -6 7 7 10 15 7 18 -3 3 -9 -2 -12 -12z"/>
<path d="M1396 668 c8 -27 12 -33 19 -27 7 8 -7 49 -17 49 -5 0 -6 -10 -2 -22z"/>
<path d="M411 656 c-9 -11 -8 -15 6 -18 29 -7 103 3 103 14 0 6 -14 8 -35 4
-22 -4 -35 -3 -35 4 0 15 -26 12 -39 -4z"/>
<path d="M807 623 c-13 -12 -7 -18 18 -19 15 -1 25 3 25 12 0 14 -31 19 -43 7z"/>
<path d="M1390 591 c0 -5 6 -11 13 -14 8 -3 7 -9 -6 -18 -15 -12 -16 -18 -5
-41 7 -16 18 -28 25 -28 6 0 20 -3 30 -6 16 -5 16 -4 -2 11 -14 12 -16 19 -7
22 20 8 14 26 -8 20 -23 -6 -27 15 -6 32 16 14 46 4 46 -15 0 -19 16 -18 24 2
8 22 9 21 -16 29 -38 13 -88 16 -88 6z"/>
<path d="M230 534 c0 -16 9 -18 28 -5 10 6 9 10 -7 14 -14 3 -21 0 -21 -9z"/>
</g>
</svg>
