<?xml version="1.0" standalone="no"?>
<!DOCTYPE svg PUBLIC "-//W3C//DTD SVG 20010904//EN"
 "http://www.w3.org/TR/2001/REC-SVG-20010904/DTD/svg10.dtd">
<svg version="1.0" xmlns="http://www.w3.org/2000/svg"
 width="700.000000pt" height="700.000000pt" viewBox="0 0 700.000000 700.000000"
 preserveAspectRatio="xMidYMid meet">
<metadata>
Created by potrace 1.14, written by Peter Selinger 2001-2017
</metadata>
<g transform="translate(0.000000,700.000000) scale(0.100000,-0.100000)"
fill="#000000" stroke="none">
<path d="M29 5987 c-1 -29 -1 -884 0 -917 l1 -25 741 1 c414 0 743 -4 746 -9
8 -12 6 -1954 -1 -2007 -39 -258 -243 -580 -471 -742 -128 -91 -374 -183 -567
-212 -138 -21 -182 -25 -323 -32 -66 -3 -122 -7 -125 -9 -7 -4 -5 -944 3 -951
15 -15 339 3 492 26 33 5 79 12 103 15 23 3 80 14 126 25 46 11 98 22 115 25
18 3 100 28 184 56 351 117 630 289 867 535 116 121 141 150 206 239 188 256
296 519 350 845 4 25 9 746 11 1602 l4 1557 -1231 0 -1230 0 -1 -22z"/>
<path d="M2975 5990 c-2 -3 -3 -1104 -3 -2447 0 -1826 3 -2443 12 -2445 6 -2
220 -4 476 -4 l465 1 3 968 2 967 1040 0 1040 0 0 -995 0 -995 53 0 c81 -1
838 -1 877 -1 l35 1 0 2475 0 2475 -485 0 -486 0 1 -985 c0 -650 -3 -985 -10
-986 -42 -4 -2069 -3 -2074 1 -4 3 -7 443 -7 978 1 535 -1 978 -4 985 -4 10
-105 13 -468 13 -255 0 -465 -3 -467 -6z"/>
</g>
</svg>
