<?xml version="1.0" standalone="no"?>
<!DOCTYPE svg PUBLIC "-//W3C//DTD SVG 20010904//EN"
 "http://www.w3.org/TR/2001/REC-SVG-20010904/DTD/svg10.dtd">
<svg version="1.0" xmlns="http://www.w3.org/2000/svg"
 width="700.000000pt" height="700.000000pt" viewBox="0 0 700.000000 700.000000"
 preserveAspectRatio="xMidYMid meet">
<metadata>
Created by potrace 1.14, written by Peter Selinger 2001-2017
</metadata>
<g transform="translate(0.000000,700.000000) scale(0.100000,-0.100000)"
fill="#000000" stroke="none">
<path d="M2099 6978 c0 -13 0 -1395 -1 -3073 0 -2672 -2 -3054 -15 -3082 -41
-89 -167 -91 -214 -5 -15 30 -17 111 -17 1070 0 570 -1 1046 -1 1057 -1 20 -5
21 -488 20 l-488 0 1 -1260 c0 -1179 1 -1264 18 -1320 57 -193 204 -332 396
-375 28 -6 291 -9 710 -7 659 2 666 2 723 24 157 59 269 171 325 326 l26 72 0
3288 1 3287 -487 0 -488 0 -1 -22z"/>
<path d="M3539 6998 c-1 -2 -3 -1577 -4 -3501 l-1 -3497 488 0 c383 0 488 3
489 13 0 6 0 784 0 1727 0 943 2 1722 5 1730 3 13 30 15 166 15 l163 0 3
-1743 2 -1742 489 0 489 0 1 3500 0 3500 -490 0 -489 0 0 -1390 0 -1390 -169
0 -169 0 0 1363 c-1 749 -1 1374 -1 1390 l-1 27 -485 0 c-267 0 -486 -1 -486
-2z"/>
</g>
</svg>
